<svg width="11" height="7" viewBox="0 0 11 7" fill="none" xmlns="http://www.w3.org/2000/svg">
<path d="M5.36826 6.73332C5.19003 6.73375 5.01731 6.6578 4.88008 6.51866L0.303389 1.85199C0.147616 1.69357 0.0496561 1.46592 0.0310597 1.21912C0.0124633 0.972322 0.0747535 0.726593 0.204227 0.53599C0.3337 0.345388 0.519751 0.225526 0.721451 0.202771C0.92315 0.180017 1.12398 0.256234 1.27975 0.414657L5.36826 4.59599L9.45677 0.563991C9.53479 0.486463 9.62456 0.428567 9.72093 0.39363C9.8173 0.358694 9.91836 0.347406 10.0183 0.360416C10.1183 0.373426 10.2151 0.410477 10.3033 0.469439C10.3915 0.528401 10.4693 0.608112 10.5323 0.703991C10.6021 0.799957 10.655 0.912542 10.6877 1.03469C10.7203 1.15684 10.732 1.28592 10.722 1.41385C10.712 1.54177 10.6804 1.66579 10.6294 1.77812C10.5784 1.89045 10.509 1.98868 10.4255 2.06666L5.84881 6.57466C5.70763 6.69181 5.53843 6.74767 5.36826 6.73332Z" fill="#007DAD"/>
</svg>
