<svg id="Layer_1" data-name="Layer 1" xmlns="http://www.w3.org/2000/svg" viewBox="0 0 960 1280">
	<defs>
		<path>
			.cls-1{fill:#e30613;stroke:#1d1d1b;stroke-miterlimit:10;}
		</path>
	</defs>
	<polygon class="cls-1" points="213.77 796.91 685.25 793.85 685.25 815.98 217.51 821.09 213.77 796.91" />
	<polygon class="cls-1" points="211.3 777.25 313.68 776.15 575.47 773.77 687.72 773.6 688.57 752.75 652.57 727.64 640.66 720.83 620.23 718.62 567.47 718.62 482.02 717.77 377.19 720.89 347.25 721.28 316.75 719.94 285.08 720.96 265.68 722.87 254.06 724.91 234.62 739.13 220.32 748.91 210.19 758.11 211.3 777.25" />
	<polygon class="cls-1" points="395.77 719.68 394.96 714.96 398.7 687.77 398.7 655.47 398 635.36 387.34 643.91 385.55 655.15 382.68 665.49 381.28 676.79 379.6 684.83 377.94 686.02 377.51 710.87 378.92 712.49 378.92 718.45 378.92 720.11 395.77 719.68" />
	<polygon class="cls-1" points="266.83 686.23 266.83 665.17 264.66 640.83 265.75 637.77 272.67 636.67 271.6 644.57 270.79 651.64 270.06 664.28 269.94 681.21 266.83 686.23" />
	<polygon class="cls-1" points="273.34 636.06 272.67 642.11 291.72 642.7 299.38 643.72 377.51 644.4 386.28 644.4 396.83 635.36 273.34 636.06" />
	<polygon class="cls-1" points="507.89 634.02 506.87 636.4 497.51 638.79 488.15 641 473.34 642.02 446.79 642.02 426.53 641 417 639.88 409.34 638.02 398.7 636.4 507.89 634.02" />
	<polygon class="cls-1" points="514.53 715.04 521 708.23 522.45 694.28 522.45 671.55 520.66 652.02 517.64 641.09 517.3 634.02 508.43 634.02 509.89 687.89 514.53 715.04" />
	<polygon class="cls-1" points="522.45 633.51 525.89 637.17 547.21 638.19 623.81 639.13 632.66 637.04 636.57 636.7 634.62 633.51 629.64 631.72 527.47 634.02 522.45 633.51" />
</svg>
