<svg id="Layer_1" data-name="Layer 1" xmlns="http://www.w3.org/2000/svg" viewBox="0 0 960 1280">
	<defs>
		<path>
			.cls-1{fill:red;}
		</path>
	</defs>
	<polygon class="cls-1" points="247.15 765.96 211.06 767.32 195.06 643.75 232.17 643.75 247.15 765.96" />
	<polygon class="cls-1" points="284.77 654.13 296.51 616.34 233.02 644.43 238.64 689.7 284.77 654.13" />
	<polygon class="cls-1" points="715.23 765.45 753.02 765.45 762.21 638.64 723.06 638.64 715.23 765.45" />
	<path class="cls-1" d="M675.06,651.15c0-.43-10.55-37.7-10.55-37.7l58,24.17-2.89,45.44Z" />
	<polygon class="cls-1" points="244.25 728.51 715.23 723.66 717.36 704.51 241.45 708.09 244.25 728.51" />
	<polygon class="cls-1" points="248.51 767.32 713.87 765.45 713.87 747.23 247.15 751.66 248.51 767.32" />
</svg>
